<?xml version="1.0" encoding="utf-8"?>
<!-- Generator: Adobe Illustrator 24.0.1, SVG Export Plug-In . SVG Version: 6.00 Build 0)  -->
<svg version="1.1" id="Capa_1" xmlns="http://www.w3.org/2000/svg" xmlns:xlink="http://www.w3.org/1999/xlink" x="0px" y="0px"
	 viewBox="0 0 33 33" style="enable-background:new 0 0 33 33;" xml:space="preserve">
<style type="text/css">
	.st0{fill:#A80D26;}
</style>
<g>
	<g>
		<path class="st0" d="M16.5,32.7c-6.1,0-11.5-4-13-9.7C1.6,23,0,21.4,0,19.4c0-2,1.6-3.6,3.6-3.6h0.3c1.9-5.1,6.9-8.5,12.6-8.5
			s10.7,3.4,12.6,8.5h0.3c2,0,3.6,1.6,3.6,3.6c0,2-1.6,3.6-3.5,3.6C28,28.6,22.6,32.7,16.5,32.7z M3.6,16.8C2.2,16.8,1,18,1,19.4
			S2.2,22,3.6,22h0.3c0.2,0,0.4,0.2,0.5,0.4c1.2,5.4,6.3,9.3,12.1,9.3s10.9-3.9,12.1-9.3c0.1-0.2,0.3-0.4,0.5-0.4h0.3
			c1.4,0,2.6-1.2,2.6-2.6s-1.2-2.6-2.6-2.6h-0.7c-0.2,0-0.4-0.1-0.5-0.3c-1.6-4.9-6.4-8.1-11.8-8.1S6.4,11.6,4.7,16.5
			c-0.1,0.2-0.3,0.3-0.5,0.3H3.6z"/>
		<g>
			<circle class="st0" cx="20.7" cy="21.3" r="1.2"/>
		</g>
		<g>
			<circle class="st0" cx="12.8" cy="21.3" r="1.2"/>
		</g>
		<path class="st0" d="M16.5,27.9c-1.2,0-2.4-0.3-3.5-1l-0.2-0.1c-0.2-0.1-0.3-0.5-0.2-0.7c0.1-0.2,0.5-0.3,0.7-0.2l0.2,0.1
			c1.9,1.1,4.2,1.1,6,0l0.2-0.1c0.2-0.1,0.5-0.1,0.7,0.2s0.1,0.5-0.2,0.7L20,26.9C18.9,27.5,17.7,27.9,16.5,27.9z"/>
	</g>
	<path class="st0" d="M17.6,8.4c-2.4,0-4.4-2-4.4-4.4c0-2,1.6-3.6,3.6-3.6c1.7,0,3,1.4,3,3c0,1.4-1.1,2.5-2.5,2.5
		c-1.2,0-2.1-0.9-2.1-2.1c0-0.3,0.2-0.5,0.5-0.5s0.5,0.2,0.5,0.5c0,0.6,0.5,1.1,1.1,1.1c0.8,0,1.5-0.7,1.5-1.5c0-1.1-0.9-2-2-2
		c-1.5,0-2.6,1.2-2.6,2.6c0,1.9,1.5,3.4,3.4,3.4c0.3,0,0.5,0.2,0.5,0.5S17.9,8.4,17.6,8.4z"/>
</g>
</svg>
