<?xml version="1.0" encoding="utf-8"?>
<!-- Generator: Adobe Illustrator 24.0.1, SVG Export Plug-In . SVG Version: 6.00 Build 0)  -->
<svg version="1.1" id="Layer_1" xmlns="http://www.w3.org/2000/svg" xmlns:xlink="http://www.w3.org/1999/xlink" x="0px" y="0px"
	 viewBox="0 0 463 463" style="enable-background:new 0 0 463 463;" xml:space="preserve">
<style type="text/css">
	.st0{fill:#A80D26;}
</style>
<g>
	<g>
		<g>
			<path class="st0" d="M407.5,0h-160c-6.2,0-11.8,2.4-16,6.3c-4.2-3.9-9.8-6.3-16-6.3h-160C42.5,0,32,10.5,32,23.5v416
				c0,13,10.5,23.5,23.5,23.5h160c6.2,0,11.8-2.4,16-6.3c4.2,3.9,9.8,6.3,16,6.3h160c13,0,23.5-10.5,23.5-23.5v-416
				C431,10.5,420.5,0,407.5,0z M224,32h-8.5c-4.1,0-7.5,3.4-7.5,7.5s3.4,7.5,7.5,7.5h8.5v369h-8.5c-4.1,0-7.5,3.4-7.5,7.5
				s3.4,7.5,7.5,7.5h8.5v8.5c0,4.7-3.8,8.5-8.5,8.5h-160c-4.7,0-8.5-3.8-8.5-8.5v-416c0-4.7,3.8-8.5,8.5-8.5h160
				c4.7,0,8.5,3.8,8.5,8.5V32z M416,439.5c0,4.7-3.8,8.5-8.5,8.5h-160c-4.7,0-8.5-3.8-8.5-8.5V431h8.5c4.1,0,7.5-3.4,7.5-7.5
				s-3.4-7.5-7.5-7.5H239V47h8.5c4.1,0,7.5-3.4,7.5-7.5s-3.4-7.5-7.5-7.5H239v-8.5c0-4.7,3.8-8.5,8.5-8.5h160c4.7,0,8.5,3.8,8.5,8.5
				V439.5z"/>
			<path class="st0" d="M190.9,134.6c-0.5-3.8-3.7-6.6-7.4-6.6h-96c-3.8,0-7,2.8-7.4,6.6L72,199.1c-2.3,18.2,3.4,36.5,15.5,50.3
				c10.5,11.9,24.9,19.4,40.5,21.2v52c0,11.9-9.6,21.5-21.5,21.5c-4.1,0-7.5,3.4-7.5,7.5s3.4,7.5,7.5,7.5h58c4.1,0,7.5-3.4,7.5-7.5
				s-3.4-7.5-7.5-7.5c-11.9,0-21.5-9.6-21.5-21.5v-52c15.6-1.8,30-9.3,40.5-21.2c12.1-13.8,17.8-32.1,15.5-50.3L190.9,134.6z
				 M172.2,239.4c-9.3,10.5-22.7,16.6-36.7,16.6h0c-14,0-27.4-6-36.7-16.6c-4.3-4.9-7.5-10.4-9.6-16.4h92.6
				C179.7,229,176.5,234.6,172.2,239.4z M184.5,208h-98c0-2.3,0.1-4.7,0.4-7.1l7.2-57.9h82.8l7.2,57.9
				C184.4,203.3,184.5,205.7,184.5,208z"/>
			<path class="st0" d="M371.5,56h-88C268.3,56,256,68.3,256,83.5s12.3,27.5,27.5,27.5h88c15.2,0,27.5-12.3,27.5-27.5
				S386.7,56,371.5,56z M371.5,96h-88c-6.9,0-12.5-5.6-12.5-12.5S276.6,71,283.5,71h88c6.9,0,12.5,5.6,12.5,12.5S378.4,96,371.5,96z
				"/>
			<path class="st0" d="M375.5,143c4.1,0,7.5-3.4,7.5-7.5s-3.4-7.5-7.5-7.5h-96c-4.1,0-7.5,3.4-7.5,7.5s3.4,7.5,7.5,7.5H375.5z"/>
			<path class="st0" d="M256,207.5c0,4.1,3.4,7.5,7.5,7.5h112c4.1,0,7.5-3.4,7.5-7.5s-3.4-7.5-7.5-7.5h-112
				C259.4,200,256,203.4,256,207.5z"/>
			<path class="st0" d="M263.5,247h80c4.1,0,7.5-3.4,7.5-7.5s-3.4-7.5-7.5-7.5h-80c-4.1,0-7.5,3.4-7.5,7.5S259.4,247,263.5,247z"/>
			<path class="st0" d="M391.5,232h-16c-4.1,0-7.5,3.4-7.5,7.5s3.4,7.5,7.5,7.5h16c4.1,0,7.5-3.4,7.5-7.5S395.6,232,391.5,232z"/>
			<path class="st0" d="M263.5,279h112c4.1,0,7.5-3.4,7.5-7.5s-3.4-7.5-7.5-7.5h-112c-4.1,0-7.5,3.4-7.5,7.5S259.4,279,263.5,279z"
				/>
			<path class="st0" d="M263.5,311h80c4.1,0,7.5-3.4,7.5-7.5s-3.4-7.5-7.5-7.5h-80c-4.1,0-7.5,3.4-7.5,7.5S259.4,311,263.5,311z"/>
			<path class="st0" d="M391.5,296h-16c-4.1,0-7.5,3.4-7.5,7.5s3.4,7.5,7.5,7.5h16c4.1,0,7.5-3.4,7.5-7.5S395.6,296,391.5,296z"/>
			<path class="st0" d="M263.5,343h112c4.1,0,7.5-3.4,7.5-7.5s-3.4-7.5-7.5-7.5h-112c-4.1,0-7.5,3.4-7.5,7.5S259.4,343,263.5,343z"
				/>
			<path class="st0" d="M343.5,360h-80c-4.1,0-7.5,3.4-7.5,7.5s3.4,7.5,7.5,7.5h80c4.1,0,7.5-3.4,7.5-7.5S347.6,360,343.5,360z"/>
			<path class="st0" d="M391.5,360h-16c-4.1,0-7.5,3.4-7.5,7.5s3.4,7.5,7.5,7.5h16c4.1,0,7.5-3.4,7.5-7.5S395.6,360,391.5,360z"/>
		</g>
	</g>
</g>
</svg>
