<?xml version="1.0" encoding="utf-8"?>
<!-- Generator: Adobe Illustrator 24.0.1, SVG Export Plug-In . SVG Version: 6.00 Build 0)  -->
<svg version="1.1" id="Layer_1" xmlns="http://www.w3.org/2000/svg" xmlns:xlink="http://www.w3.org/1999/xlink" x="0px" y="0px"
	 viewBox="0 0 463 463" style="enable-background:new 0 0 463 463;" xml:space="preserve">
<style type="text/css">
	.st0{fill:#A80D26;}
</style>
<g>
	<g>
		<g>
			<path class="st0" d="M275,159.5c0-4.1-3.4-7.5-7.5-7.5h-112c-4.1,0-7.5,3.4-7.5,7.5s3.4,7.5,7.5,7.5h112
				C271.6,167,275,163.6,275,159.5z"/>
			<path class="st0" d="M259,191.5c0-4.1-3.4-7.5-7.5-7.5h-80c-4.1,0-7.5,3.4-7.5,7.5s3.4,7.5,7.5,7.5h80
				C255.6,199,259,195.6,259,191.5z"/>
			<path class="st0" d="M259.5,135c13,0,23.5-10.5,23.5-23.5S272.5,88,259.5,88h-96c-13,0-23.5,10.5-23.5,23.5s10.5,23.5,23.5,23.5
				H259.5z M155,111.5c0-4.7,3.8-8.5,8.5-8.5h96c4.7,0,8.5,3.8,8.5,8.5s-3.8,8.5-8.5,8.5h-96C158.8,120,155,116.2,155,111.5z"/>
			<path class="st0" d="M346.7,417.1c-1.6-19.7-10.4-37.4-23.7-50.5V15.5C323,7,316,0,307.5,0h-192C107,0,100,7,100,15.5v432
				c0,8.5,7,15.5,15.5,15.5h224c13,0,23.5-10.5,23.5-23.5C363,429.1,356.2,420.2,346.7,417.1z M331.5,416H203.4
				c3.7-32,31-57,64.1-57S327.8,384,331.5,416z M173.6,448h-58.1c-0.3,0-0.5-0.2-0.5-0.5v-432c0-0.3,0.2-0.5,0.5-0.5h192
				c0.3,0,0.5,0.2,0.5,0.5v339.6c-9.8-5.9-21-9.6-33-10.8V327h8.5c4.1,0,7.5-3.4,7.5-7.5s-3.4-7.5-7.5-7.5h-32
				c-4.1,0-7.5,3.4-7.5,7.5s3.4,7.5,7.5,7.5h8.5v17.4c-38.2,3.6-68.7,34.4-71.7,72.8c-9.4,3.1-16.3,11.9-16.3,22.4
				C172,442.5,172.6,445.4,173.6,448z M339.5,448h-144c-4.7,0-8.5-3.8-8.5-8.5s3.8-8.5,8.5-8.5h144c4.7,0,8.5,3.8,8.5,8.5
				S344.2,448,339.5,448z"/>
		</g>
	</g>
</g>
</svg>
